HIERARCHY
ROOT SpineBase
{
  OFFSET 0.000000 0.000000 0.000000
  CHANNELS 6 Xposition Yposition Zposition Zrotation Xrotation Yrotation
  JOINT SpineMid
  {
    OFFSET 0.000000 25.389576 0.000000
    CHANNELS 3 Zrotation Xrotation Yrotation
    JOINT SpineShoulder
    {
      OFFSET -0.044862 18.936386 -0.580498
      CHANNELS 3 Zrotation Xrotation Yrotation
      JOINT Neck
      {
        OFFSET -0.025460 6.286556 -0.453707
        CHANNELS 3 Zrotation Xrotation Yrotation
        JOINT Head
        {
          OFFSET 2.043367 10.892209 -0.401166
          CHANNELS 3 Zrotation Xrotation Yrotation
          End Site
          {
            OFFSET 0 0 0
          }
        }
      }
      JOINT ShoulderLeft
      {
        OFFSET -12.456135 -2.128394 -7.321055
        CHANNELS 3 Zrotation Xrotation Yrotation
        JOINT ElbowLeft
        {
          OFFSET -3.384310 -18.395766 -3.854999
          CHANNELS 3 Zrotation Xrotation Yrotation
          JOINT WristLeft
          {
            OFFSET 21.658013 12.236625 -10.272260
            CHANNELS 3 Zrotation Xrotation Yrotation
            JOINT HandLeft
            {
              OFFSET 2.934892 1.613034 -1.050432
              CHANNELS 3 Zrotation Xrotation Yrotation
              JOINT HandTipLeft
              {
                OFFSET 4.986006 1.180353 2.375555
                CHANNELS 3 Zrotation Xrotation Yrotation
                End Site
                {
                  OFFSET 0 0 0
                }
              }
              JOINT ThumbLeft
              {
                OFFSET 0.003207 1.875655 -3.347021
                CHANNELS 3 Zrotation Xrotation Yrotation
                End Site
                {
                  OFFSET 0 0 0
                }
              }
            }
          }
        }
      }
      JOINT ShoulderRight
      {
        OFFSET 11.535596 -1.602781 4.899247
        CHANNELS 3 Zrotation Xrotation Yrotation
        JOINT ElbowRight
        {
          OFFSET 2.069679 -19.989775 -1.786766
          CHANNELS 3 Zrotation Xrotation Yrotation
          JOINT WristRight
          {
            OFFSET 2.097459 13.055515 -20.237431
            CHANNELS 3 Zrotation Xrotation Yrotation
            JOINT HandRight
            {
              OFFSET -2.383474 1.533160 -1.989730
              CHANNELS 3 Zrotation Xrotation Yrotation
              JOINT HandTipRight
              {
                OFFSET -4.244733 1.740317 -5.184807
                CHANNELS 3 Zrotation Xrotation Yrotation
                End Site
                {
                  OFFSET 0 0 0
                }
              }
              JOINT ThumbRight
              {
                OFFSET -4.603161 -0.086037 -5.258531
                CHANNELS 3 Zrotation Xrotation Yrotation
                End Site
                {
                  OFFSET 0 0 0
                }
              }
            }
          }
        }
      }
    }
  }
  JOINT HipLeft
  {
    OFFSET -5.131991 0.861951 -5.656878
    CHANNELS 3 Zrotation Xrotation Yrotation
    JOINT KneeLeft
    {
      OFFSET -5.976088 -34.311385 1.393105
      CHANNELS 3 Zrotation Xrotation Yrotation
      JOINT AnkleLeft
      {
        OFFSET -2.170443 -32.397249 8.572434
        CHANNELS 3 Zrotation Xrotation Yrotation
        JOINT FootLeft
        {
          OFFSET 4.764647 -6.873647 1.124391
          CHANNELS 3 Zrotation Xrotation Yrotation
          End Site
          {
            OFFSET 0 0 0
          }
        }
      }
    }
  }
  JOINT HipRight
  {
    OFFSET 4.892151 0.334425 -0.447453
    CHANNELS 3 Zrotation Xrotation Yrotation
    JOINT KneeRight
    {
      OFFSET -2.215274 -33.692220 4.354370
      CHANNELS 3 Zrotation Xrotation Yrotation
      JOINT AnkleRight
      {
        OFFSET -4.188004 -33.405283 7.582314
        CHANNELS 3 Zrotation Xrotation Yrotation
        JOINT FootRight
        {
          OFFSET 0.338042 -4.466454 -8.177847
          CHANNELS 3 Zrotation Xrotation Yrotation
          End Site
          {
            OFFSET 0 0 0
          }
        }
      }
    }
  }
}
MOTION
Frames: 12
Frame Time: 0.033333
14.518264 72.775342 371.686487 0.412687 0.470729 -33.117733 -0.088469 -0.619731 33.115559 -0.000000 0.000000 0.000000 -2.165696 -3.460559 0.501851 0.000000 0.000000 0.000000 9.919119 5.748047 -3.660125 -5.370695 1.412442 -7.929851 12.515931 -5.715346 27.631941 9.345552 -13.298183 16.856234 0.000000 0.000000 0.000000 0.000000 0.000000 0.000000 11.119400 -1.839249 -0.999758 1.732409 -0.872653 21.080560 -39.514179 35.623891 -41.603906 2.856374 14.513409 -7.974691 0.000000 0.000000 0.000000 0.000000 0.000000 0.000000 0.833986 -0.869474 33.277695 -2.379307 1.489556 -0.626831 -5.399960 37.757209 31.974455 0.000000 0.000000 0.000000 1.394830 -0.674851 33.345242 -1.297296 1.774334 -0.337276 7.851881 7.620244 -12.159496 0.000000 0.000000 0.000000
14.506837 72.779822 371.693718 0.454004 0.438838 -33.191194 -0.139712 -0.615773 33.188705 -0.000000 0.000000 0.000000 -2.379402 -3.337900 0.467054 0.000000 0.000000 0.000000 9.684720 5.493823 -3.530043 -4.852096 2.042352 -8.489323 10.901149 -7.414744 28.579182 12.371174 -13.325038 17.162722 0.000000 0.000000 0.000000 0.000000 0.000000 0.000000 11.237967 -2.158139 -1.010230 2.055619 -0.998042 21.745914 -42.196437 40.515814 -39.599760 6.358935 13.318817 -9.023938 0.000000 0.000000 0.000000 0.000000 0.000000 0.000000 0.815124 -0.957087 33.367561 -2.299058 1.658122 -0.629557 -2.676255 28.299164 22.818448 0.000000 0.000000 0.000000 1.571321 -0.630934 33.453662 -1.637285 2.020954 -0.413073 10.472582 4.346974 -16.840402 0.000000 0.000000 0.000000
14.499376 72.787974 371.710761 0.511570 0.406545 -33.305077 -0.204334 -0.620667 33.302155 -0.000000 0.000000 0.000000 -2.638428 -3.300584 0.443746 0.000000 0.000000 0.000000 9.712504 5.338357 -3.496345 -4.517629 2.508557 -8.845450 11.135265 -7.950723 30.327256 9.352112 -12.213437 12.267858 0.000000 0.000000 0.000000 0.000000 0.000000 0.000000 11.064273 -2.923847 -1.003792 1.549663 -0.081579 20.715594 -40.971556 38.237001 -38.725282 6.341552 12.754361 -9.715745 0.000000 0.000000 0.000000 0.000000 0.000000 0.000000 0.677876 -0.997082 33.475399 -2.126878 1.686760 -0.605548 -6.117022 36.051190 30.667582 0.000000 0.000000 0.000000 1.581503 -0.687259 33.578755 -1.707367 2.244559 -0.445893 4.679700 -2.552817 -7.960635 0.000000 0.000000 0.000000
14.496057 72.807947 371.730934 0.565179 0.372547 -33.508194 -0.265604 -0.622632 33.504913 -0.000000 0.000000 0.000000 -2.860828 -3.282172 0.426085 0.000000 0.000000 0.000000 9.776866 5.376007 -3.523379 -4.310231 2.560774 -8.791151 11.784285 -8.394020 32.544042 8.832484 -12.110178 10.325109 0.000000 0.000000 0.000000 0.000000 0.000000 0.000000 11.128391 -3.200579 -1.009732 0.776923 0.116102 19.670346 -39.139337 35.219357 -37.852703 3.955699 13.539152 -8.789355 0.000000 0.000000 0.000000 0.000000 0.000000 0.000000 0.583665 -1.059857 33.681551 -1.985158 1.773773 -0.592398 -5.222786 39.618970 33.623558 0.000000 0.000000 0.000000 1.282915 -0.818443 33.744116 -1.260374 2.217961 -0.376548 4.883912 -5.688261 -9.263113 0.000000 0.000000 0.000000
14.493850 72.833613 371.751384 0.599681 0.358632 -33.757840 -0.299307 -0.631386 33.754314 -0.000000 0.000000 0.000000 -2.860572 -3.396333 0.444561 0.000000 0.000000 0.000000 9.984389 5.604477 -3.639409 -4.146506 2.463449 -8.713868 11.839409 -8.952868 33.989059 7.789364 -11.373633 10.469174 0.000000 0.000000 0.000000 0.000000 0.000000 0.000000 11.015980 -3.382305 -1.004339 -0.355378 0.275728 17.815424 -35.497192 29.380195 -36.395489 -0.990014 15.847454 -10.959706 0.000000 0.000000 0.000000 0.000000 0.000000 0.000000 0.510442 -1.119987 33.932167 -1.984265 1.887922 -0.614033 0.683109 31.627097 24.819268 0.000000 0.000000 0.000000 0.861973 -1.030797 33.931390 -0.475287 2.079687 -0.239678 3.692478 -7.517850 -8.138768 0.000000 0.000000 0.000000
14.496820 72.857791 371.764506 0.619864 0.344178 -34.013209 -0.321306 -0.632022 34.009575 -0.000000 0.000000 0.000000 -2.733374 -3.493784 0.468935 0.000000 0.000000 0.000000 10.220864 5.997325 -3.808216 -4.068036 2.163715 -8.585189 12.094295 -9.015163 34.797231 6.632337 -11.060655 7.248626 0.000000 0.000000 0.000000 0.000000 0.000000 0.000000 11.304164 -3.068974 -1.019691 -2.588561 0.682459 14.928727 -28.949826 18.891237 -33.925992 -9.171364 19.519352 -12.152756 0.000000 0.000000 0.000000 0.000000 0.000000 0.000000 0.486807 -1.189044 34.196146 -1.886513 1.920127 -0.606519 1.721271 30.634274 23.708222 0.000000 0.000000 0.000000 0.685700 -0.527328 34.166535 -0.892022 0.478785 -0.143044 -4.041932 -17.649660 7.602919 0.000000 0.000000 0.000000
14.501408 72.882692 371.785782 0.618875 0.334208 -34.265294 -0.323319 -0.624633 34.261727 -0.000000 0.000000 0.000000 -2.424985 -3.555008 0.499977 0.000000 0.000000 0.000000 10.472920 6.318507 -3.963517 -4.141244 1.767815 -8.221086 12.551406 -8.316977 34.340348 5.464083 -11.140807 6.347477 0.000000 0.000000 0.000000 0.000000 0.000000 0.000000 11.554741 -2.521038 -1.033452 -3.790242 1.120689 13.453612 -26.041668 13.298975 -33.528746 -13.578974 21.740953 -12.539181 0.000000 0.000000 0.000000 0.000000 0.000000 0.000000 0.454102 -1.188289 34.444619 -1.784873 1.857181 -0.584544 0.242366 34.122600 26.839411 0.000000 0.000000 0.000000 0.555138 -0.416023 34.399908 -0.842684 0.324083 -0.127820 -6.331117 -21.289326 13.415043 0.000000 0.000000 0.000000
14.500707 72.902188 371.802436 0.623493 0.333280 -34.473727 -0.325376 -0.627653 34.470132 -0.000000 0.000000 0.000000 -2.194378 -3.634466 0.529067 0.000000 0.000000 0.000000 10.717599 6.625504 -4.114327 -4.086703 1.533841 -8.070285 12.068668 -8.364510 33.692617 5.506306 -11.238735 5.038326 0.000000 0.000000 0.000000 0.000000 0.000000 0.000000 11.523678 -2.612460 -1.031696 -4.691822 2.071971 12.013270 -23.768293 8.740857 -33.174214 -16.168479 22.688263 -12.936661 0.000000 0.000000 0.000000 0.000000 0.000000 0.000000 0.396347 -1.177497 34.643135 -1.450170 1.625651 -0.495209 2.098886 20.677509 15.692193 0.000000 0.000000 0.000000 -0.325376 -0.627653 34.470132 -0.000000 0.000000 0.000000 -3.998779 -15.595309 7.475120 0.000000 0.000000 0.000000
14.502745 72.919683 371.829745 0.632789 0.330446 -34.538092 -0.333936 -0.630954 34.534428 -0.000000 0.000000 0.000000 -1.898816 -3.729310 0.565656 0.000000 0.000000 0.000000 10.896914 6.907457 -4.241272 -4.110129 1.313562 -8.033586 11.802054 -7.793088 32.105838 5.786330 -11.838647 6.106367 0.000000 0.000000 0.000000 0.000000 0.000000 0.000000 11.436179 -2.649804 -1.026098 -5.310394 2.790157 10.899884 -22.329019 6.389218 -31.918131 -17.105266 22.882314 -11.923550 0.000000 0.000000 0.000000 0.000000 0.000000 0.000000 0.339009 -1.152126 34.696644 -1.090203 1.368587 -0.392353 0.984231 9.752761 7.532561 0.000000 0.000000 0.000000 -0.333936 -0.630954 34.534428 0.861417 0.588747 0.117538 -6.057797 -10.703015 9.661707 0.000000 0.000000 0.000000
14.505616 72.936284 371.857001 0.638670 0.327152 -34.538248 -0.340647 -0.631576 34.534547 -0.000000 0.000000 0.000000 -1.604361 -3.746978 0.589341 0.000000 0.000000 0.000000 11.001449 7.141307 -4.334736 -4.308425 0.975784 -7.875823 12.622447 -6.888833 31.677610 7.025317 -13.284201 8.073761 0.000000 0.000000 0.000000 0.000000 0.000000 0.000000 11.106732 -2.922524 -1.006460 -5.282672 3.528561 10.412302 -22.209880 5.904343 -31.528596 -17.397349 22.932755 -9.391299 0.000000 0.000000 0.000000 0.000000 0.000000 0.000000 -0.340647 -0.631576 34.534547 -0.000000 0.000000 0.000000 -0.251494 15.165839 10.786829 0.000000 0.000000 0.000000 -0.340647 -0.631576 34.534547 0.826276 0.513519 0.119698 -1.628929 1.254695 1.443063 0.000000 0.000000 0.000000
14.506001 72.956222 371.884995 0.649942 0.321303 -34.560537 -0.353002 -0.633285 34.556763 -0.000000 0.000000 0.000000 -1.327472 -3.731488 0.606083 0.000000 0.000000 0.000000 11.022587 7.275357 -4.377492 -4.625734 0.644149 -7.719349 13.630987 -6.014347 31.503283 5.498668 -13.265383 6.125053 0.000000 0.000000 0.000000 0.000000 0.000000 0.000000 11.254229 -3.026592 -1.016361 -5.228657 3.631554 10.751872 -23.916592 8.455340 -31.689756 -14.080756 20.869214 -6.476996 0.000000 0.000000 0.000000 0.000000 0.000000 0.000000 -0.353002 -0.633285 34.556763 -0.000000 0.000000 0.000000 -1.471096 14.797318 10.553986 0.000000 0.000000 0.000000 -0.353002 -0.633285 34.556763 0.934385 0.595631 0.132852 -0.935814 -0.593384 -0.142555 0.000000 0.000000 0.000000
14.498377 72.975666 371.910303 0.668057 0.341111 -34.560305 -0.356689 -0.659871 34.556263 -0.000000 0.000000 0.000000 -1.146970 -3.794637 0.629931 0.000000 0.000000 0.000000 11.005578 7.288578 -4.376293 -5.034049 0.336704 -7.491960 14.504579 -5.434602 31.574586 4.821492 -13.353306 4.456188 0.000000 0.000000 0.000000 0.000000 0.000000 0.000000 11.689182 -2.819492 -1.042988 -5.866582 4.062187 10.430937 -23.450077 7.388436 -31.160395 -11.365035 18.386121 -3.053370 0.000000 0.000000 0.000000 0.000000 0.000000 0.000000 -0.356689 -0.659871 34.556263 -0.000000 0.000000 0.000000 -3.161809 27.747659 20.906293 0.000000 0.000000 0.000000 -0.356689 -0.659871 34.556263 0.924577 0.787518 0.105048 -2.190193 0.441054 2.245807 0.000000 0.000000 0.000000
